<?xml version="1.0" encoding="UTF-8" standalone="no"?>
<!-- Created with Inkscape (http://www.inkscape.org/) -->

<svg
   xmlns:dc="http://purl.org/dc/elements/1.1/"
   xmlns:cc="http://creativecommons.org/ns#"
   xmlns:rdf="http://www.w3.org/1999/02/22-rdf-syntax-ns#"
   xmlns:svg="http://www.w3.org/2000/svg"
   xmlns="http://www.w3.org/2000/svg"
   xmlns:sodipodi="http://sodipodi.sourceforge.net/DTD/sodipodi-0.dtd"
   xmlns:inkscape="http://www.inkscape.org/namespaces/inkscape"
   width="22.894655mm"
   height="27.612984mm"
   viewBox="0 0 81.122794 97.84128"
   id="svg4296"
   version="1.1"
   inkscape:version="0.91 r13725"
   sodipodi:docname="quiz.svg">
  <defs
     id="defs4298" />
  <sodipodi:namedview
     id="base"
     pagecolor="#ffffff"
     bordercolor="#666666"
     borderopacity="1.0"
     inkscape:pageopacity="0.0"
     inkscape:pageshadow="2"
     inkscape:zoom="0.175"
     inkscape:cx="-1981.144"
     inkscape:cy="-825.99628"
     inkscape:document-units="px"
     inkscape:current-layer="layer1"
     showgrid="false"
     inkscape:window-width="1855"
     inkscape:window-height="1176"
     inkscape:window-x="65"
     inkscape:window-y="24"
     inkscape:window-maximized="1"
     fit-margin-top="0"
     fit-margin-left="0"
     fit-margin-right="0"
     fit-margin-bottom="0" />
  <metadata
     id="metadata4301">
    <rdf:RDF>
      <cc:Work
         rdf:about="">
        <dc:format>image/svg+xml</dc:format>
        <dc:type
           rdf:resource="http://purl.org/dc/dcmitype/StillImage" />
        <dc:title></dc:title>
      </cc:Work>
    </rdf:RDF>
  </metadata>
  <g
     inkscape:label="Calque 1"
     inkscape:groupmode="layer"
     id="layer1"
     transform="translate(-370.86718,-552.01299)">
    <g
       transform="translate(-89.529838,418.97981)"
       id="g4295"
       inkscape:export-filename="/home/nolwenn/Bureau/mes documents/plateforme MOOC/LOGOs/éléments/final/quiz"
       inkscape:export-xdpi="729"
       inkscape:export-ydpi="729">
      <text
         transform="matrix(0.91649556,0.40004485,-0.40004485,0.91649556,0,0)"
         sodipodi:linespacing="125%"
         id="text4159-6"
         y="-67.339439"
         x="538.86749"
         style="font-style:normal;font-variant:normal;font-weight:normal;font-stretch:normal;font-size:28.3047657px;line-height:125%;font-family:Calibri;-inkscape-font-specification:'Calibri, Normal';text-align:start;letter-spacing:0px;word-spacing:0px;writing-mode:lr-tb;text-anchor:start;fill:#009fb8;fill-opacity:1;stroke:none;stroke-width:1px;stroke-linecap:butt;stroke-linejoin:miter;stroke-opacity:1"
         xml:space="preserve"><tspan
           y="-67.339439"
           x="538.86749"
           id="tspan4161-5"
           sodipodi:role="line"
           style="font-style:normal;font-variant:normal;font-weight:bold;font-stretch:normal;font-size:31.24996185px;line-height:125%;font-family:Calibri;-inkscape-font-specification:'Calibri, Bold';text-align:start;writing-mode:lr-tb;text-anchor:start">?</tspan></text>
      <text
         transform="matrix(0.75941077,-0.66808016,0.63503322,0.75814951,0,0)"
         sodipodi:linespacing="125%"
         id="text4159-3-4"
         y="436.46201"
         x="258.99811"
         style="font-style:normal;font-variant:normal;font-weight:bold;font-stretch:normal;font-size:31.24996185px;line-height:125%;font-family:Calibri;-inkscape-font-specification:'Calibri, Bold';text-align:start;letter-spacing:0px;word-spacing:0px;writing-mode:lr-tb;text-anchor:start;fill:#009fb8;fill-opacity:1;stroke:none;stroke-width:1px;stroke-linecap:butt;stroke-linejoin:miter;stroke-opacity:1"
         xml:space="preserve"><tspan
           y="436.46201"
           x="258.99811"
           id="tspan4161-3-3"
           sodipodi:role="line">?</tspan></text>
      <g
         id="g5121"
         transform="matrix(0.28285852,0,0,-0.28285852,376.79422,258.02059)">
        <g
           id="g402"
           transform="translate(404.9814,95.9707)">
          <path
             d="m 0,0 -11.883,0 c -1.295,0 -2.376,0.989 -2.49,2.28 -1.807,20.474 7.44,49.381 7.835,50.602 0.425,1.313 1.831,2.032 3.147,1.61 1.314,-0.425 2.036,-1.834 1.611,-3.147 C -1.87,51.066 -10.414,24.351 -9.543,5 l 7.888,0 c 3.559,8.227 20.901,46.116 48.404,70.953 0.729,0.657 1.774,0.83 2.676,0.436 1.697,-0.734 41.935,-17.469 63.928,31.997 0.561,1.262 2.04,1.832 3.299,1.268 1.262,-0.56 1.83,-2.038 1.269,-3.3 C 105.407,78.205 86.914,70.281 73.604,68.591 62.104,67.129 52.584,69.919 48.971,71.208 20.136,44.488 2.49,1.983 2.313,1.551 1.928,0.613 1.015,0 0,0"
             style="fill:#6d6e71;fill-opacity:1;fill-rule:nonzero;stroke:none"
             id="path404"
             inkscape:connector-curvature="0" />
        </g>
        <g
           id="g406"
           transform="translate(531.6436,199.2617)">
          <path
             d="m 0,0 c -15.27,-0.001 -24.424,10.415 -25.7,11.965 -5.966,5.719 -8.279,13.513 -6.185,20.881 1.547,5.445 5.366,9.548 9.73,10.451 2.192,0.45 6.463,0.478 10.481,-4.44 0.873,-1.069 0.715,-2.644 -0.354,-3.518 -1.074,-0.873 -2.645,-0.713 -3.519,0.354 -1.231,1.509 -3.198,3.209 -5.595,2.707 -2.521,-0.521 -4.906,-3.302 -5.933,-6.921 -1.589,-5.592 0.255,-11.573 4.932,-15.998 0.1,-0.094 0.192,-0.197 0.275,-0.305 0.612,-0.799 15.399,-19.513 41.195,-4.212 10.7,6.347 16.901,14.561 18.43,24.418 1.729,11.146 -3.041,22.361 -8.536,28.53 -4.876,5.476 -11.719,6.421 -16.339,4.928 -2.258,-0.73 -6.124,-2.726 -6.656,-7.899 -0.305,-2.949 0.225,-5.18 1.575,-6.635 2.106,-2.27 5.709,-2.197 5.754,-2.198 1.388,0.051 2.529,-1.04 2.576,-2.413 0.046,-1.375 -1.018,-2.528 -2.392,-2.583 -0.234,-0.01 -5.868,-0.184 -9.561,3.748 -2.403,2.559 -3.387,6.122 -2.927,10.594 0.593,5.753 4.366,10.293 10.094,12.144 7.408,2.391 16.092,-0.163 21.61,-6.36 C 39.23,60.191 44.677,47.372 42.697,34.615 40.953,23.373 33.754,13.708 21.878,6.663 13.631,1.771 6.295,0.001 0,0"
             style="fill:#6d6e71;fill-opacity:1;fill-rule:nonzero;stroke:none"
             id="path408"
             inkscape:connector-curvature="0" />
        </g>
        <g
           id="g410"
           transform="translate(572.0537,241.5283)">
          <path
             d="m 0,0 c -0.439,0 -0.883,0.115 -1.286,0.357 -1.184,0.712 -1.566,2.247 -0.855,3.43 0.84,1.407 19.903,34.214 -5.622,68.532 -30.77,41.375 -67.658,29.118 -68.025,28.99 -1.307,-0.458 -2.73,0.234 -3.184,1.537 -0.455,1.303 0.234,2.729 1.537,3.183 0.418,0.146 10.408,3.549 24.538,1.431 12.953,-1.939 31.993,-9.092 49.146,-32.156 C 23.826,38.224 2.364,1.577 2.145,1.212 1.676,0.432 0.848,0 0,0"
             style="fill:#6d6e71;fill-opacity:1;fill-rule:nonzero;stroke:none"
             id="path412"
             inkscape:connector-curvature="0" />
        </g>
        <g
           id="g414"
           transform="translate(484.3857,291.4102)">
          <path
             d="m 0,0 c -6.514,0 -11.385,2.103 -14.481,6.25 -6.484,8.687 -2.28,23.067 -2.097,23.676 0.396,1.321 1.789,2.075 3.112,1.677 1.322,-0.397 2.073,-1.79 1.677,-3.113 -0.036,-0.122 -3.663,-12.595 1.321,-19.258 C -8.338,6.385 -4.913,5 -0.002,5 L 0.07,5 c 8.28,0.023 14.772,4.28 17.813,11.68 3.662,8.911 1.105,19.887 -6.362,27.313 -0.052,0.053 -0.103,0.108 -0.151,0.164 -0.082,0.098 -8.703,10.139 -24.27,15.541 -20.845,7.236 -43.671,3.184 -67.846,-12.038 -1.168,-0.734 -2.711,-0.386 -3.448,0.783 -0.735,1.168 -0.385,2.712 0.784,3.448 31.922,20.099 56.991,17.86 72.402,12.443 C 5.144,58.656 14.139,48.604 15.12,47.465 24.086,38.496 26.985,25.678 22.507,14.779 18.717,5.554 10.334,0.029 0.084,0 L 0,0 Z"
             style="fill:#6d6e71;fill-opacity:1;fill-rule:nonzero;stroke:none"
             id="path416"
             inkscape:connector-curvature="0" />
        </g>
        <g
           id="g418"
           transform="translate(355.6152,259.4609)">
          <path
             d="m 0,0 c -7.786,0 -13.978,4.894 -16.725,8.381 -0.869,0.992 -8.685,10.345 -7.709,24.376 0.851,12.232 8.049,24.105 21.393,35.288 19.18,16.072 37.698,17.78 49.855,16.389 C 59.369,82.993 67.751,78.119 68.854,77.45 88.646,67.508 93.838,49.241 88.73,36.312 84.506,25.618 74.372,20.607 63.519,23.832 c -4.436,1.319 -7.59,3.85 -9.374,7.52 -3.647,7.502 0.029,16.981 0.187,17.38 0.508,1.285 1.959,1.915 3.244,1.405 1.284,-0.508 1.913,-1.96 1.404,-3.244 -0.028,-0.075 -3.021,-7.864 -0.331,-13.371 1.164,-2.381 3.223,-3.984 6.295,-4.897 10.152,-3.021 16.656,3.243 19.136,9.523 4.149,10.5 0.422,25.893 -17.56,34.879 -0.073,0.036 -0.144,0.077 -0.212,0.119 -1.297,0.806 -32.217,19.492 -66.137,-8.933 -12.229,-10.248 -18.827,-20.919 -19.61,-31.714 -0.9,-12.4 6.423,-20.765 6.497,-20.848 0.037,-0.041 0.077,-0.089 0.111,-0.132 C -12.5,11.1 -4.489,1.176 6.594,6.613 c 5.228,2.567 6.503,6.296 6.651,8.972 0.205,3.696 -1.638,6.873 -3.565,8.101 -1.117,0.71 -2.176,0.781 -3.238,0.21 -1.217,-0.652 -2.732,-0.193 -3.384,1.024 -0.652,1.218 -0.194,2.732 1.023,3.385 2.642,1.415 5.662,1.27 8.286,-0.403 3.795,-2.418 6.154,-7.479 5.87,-12.593 C 18.055,12.025 16.586,5.948 8.796,2.125 5.719,0.615 2.759,0 0,0"
             style="fill:#6d6e71;fill-opacity:1;fill-rule:nonzero;stroke:none"
             id="path420"
             inkscape:connector-curvature="0" />
        </g>
        <g
           id="g422"
           transform="translate(303.3774,225.9453)">
          <path
             d="m 0,0 c -1.217,0 -2.283,0.889 -2.469,2.128 -4.049,26.912 4.955,44.72 13.221,54.919 8.977,11.075 18.852,15.711 19.269,15.903 1.254,0.578 2.739,0.03 3.317,-1.223 0.578,-1.252 0.032,-2.736 -1.219,-3.316 C 32.026,68.368 22.735,63.971 14.494,53.722 3.5,40.049 -0.544,22.94 2.475,2.872 2.681,1.507 1.74,0.233 0.375,0.027 0.249,0.009 0.124,0 0,0"
             style="fill:#6d6e71;fill-opacity:1;fill-rule:nonzero;stroke:none"
             id="path424"
             inkscape:connector-curvature="0" />
        </g>
        <g
           id="g426"
           transform="translate(348.2188,148.4023)">
          <path
             d="m 0,0 c -4.219,0 -35.22,1.152 -48.149,34.015 -16.253,41.308 16.665,63.066 17,63.281 0.055,0.036 0.111,0.069 0.17,0.1 6.092,3.269 13,3.955 18.95,1.882 5.506,-1.917 9.868,-6.047 12.284,-11.629 2.787,-6.443 1.088,-14.61 -4.33,-20.807 -4.366,-4.995 -9.915,-7.154 -14.84,-5.764 -1.329,0.373 -2.104,1.754 -1.73,3.083 0.374,1.329 1.755,2.109 3.083,1.73 2.98,-0.837 6.705,0.788 9.723,4.241 3.404,3.894 5.808,10.208 3.505,15.532 -1.88,4.345 -5.11,7.42 -9.339,8.892 -4.602,1.602 -10.01,1.049 -14.85,-1.516 C -30.547,91.701 -57.989,72.68 -43.497,35.845 -31.012,4.114 -1.009,4.946 0.262,5.002 1.623,5.065 2.805,3.987 2.863,2.609 2.921,1.231 1.854,0.066 0.477,0.006 0.455,0.005 0.29,0 0,0"
             style="fill:#6d6e71;fill-opacity:1;fill-rule:nonzero;stroke:none"
             id="path428"
             inkscape:connector-curvature="0" />
        </g>
        <g
           id="g430"
           transform="translate(395.4399,124.208)">
          <path
             d="m 0,0 c -0.101,0 -0.204,0.006 -0.307,0.019 -22.841,2.795 -38.362,10.361 -46.13,22.484 -8.553,13.351 -4.304,27.105 -4.119,27.684 2.354,7.603 9.463,12.721 17.687,12.721 l 0.026,0 c 7.156,-0.009 16.106,-4.26 19.758,-16.162 1.599,-5.213 -2.592,-11.553 -7.511,-14.203 -4.632,-2.495 -9.342,-1.639 -12.595,2.297 -0.88,1.063 -0.731,2.639 0.333,3.519 1.065,0.88 2.64,0.731 3.52,-0.334 1.713,-2.071 3.855,-2.435 6.37,-1.081 3.256,1.755 5.831,5.961 5.102,8.335 -2.423,7.899 -8.025,12.62 -14.984,12.629 l -0.019,0 c -6.019,0 -11.209,-3.704 -12.918,-9.221 -0.042,-0.136 -3.705,-12.215 3.603,-23.553 C -35.241,14.362 -20.947,7.582 0.301,4.981 1.671,4.813 2.646,3.566 2.479,2.196 2.323,0.929 1.245,0 0,0"
             style="fill:#6d6e71;fill-opacity:1;fill-rule:nonzero;stroke:none"
             id="path432"
             inkscape:connector-curvature="0" />
        </g>
        <g
           id="g434"
           transform="translate(373.4023,182.0596)">
          <path
             d="m 0,0 c -5.583,0 -9.351,0.565 -9.64,0.61 -1.364,0.212 -2.298,1.489 -2.087,2.852 0.211,1.364 1.486,2.293 2.851,2.09 0.125,-0.018 12.709,-1.889 25.939,1.469 17.278,4.384 27.534,15.274 30.483,32.366 1.639,9.49 -0.962,17.427 -7.133,21.779 -5.522,3.891 -12.862,4.278 -18.7,0.985 -3.912,-2.207 -10.329,-7.973 -9.354,-21.799 0.098,-1.377 -0.94,-2.573 -2.317,-2.67 C 8.657,37.6 7.469,38.623 7.372,40 6.518,52.103 10.849,61.764 19.256,66.506 26.767,70.745 36.201,70.252 43.294,65.252 51.107,59.744 54.453,50.006 52.474,38.537 49.195,19.541 37.324,6.954 18.145,2.137 11.441,0.453 4.994,0 0,0"
             style="fill:#6d6e71;fill-opacity:1;fill-rule:nonzero;stroke:none"
             id="path436"
             inkscape:connector-curvature="0" />
        </g>
        <g
           id="g438"
           transform="translate(480.8398,202.1836)">
          <path
             d="m 0,0 c -3.9,0 -7.875,2.161 -10.325,5.948 -3.071,4.746 -3.789,12.682 4.3,19.424 11.495,9.588 24.29,1.078 29.45,-4.761 0.914,-1.035 0.815,-2.615 -0.219,-3.529 C 22.172,16.169 20.595,16.265 19.68,17.298 19.201,17.836 7.813,30.396 -2.824,21.532 -9.834,15.688 -7.125,10.206 -6.128,8.664 -4.402,5.999 -0.893,3.984 2.224,5.502 3.467,6.106 4.961,5.592 5.566,4.351 6.172,3.109 5.656,1.613 4.415,1.008 3.017,0.326 1.514,0.001 0,0"
             style="fill:#6d6e71;fill-opacity:1;fill-rule:nonzero;stroke:none"
             id="path440"
             inkscape:connector-curvature="0" />
        </g>
      </g>
    </g>
  </g>
</svg>
