<?xml version="1.0" encoding="UTF-8" standalone="no"?>
<!-- Created with Inkscape (http://www.inkscape.org/) -->

<svg
   xmlns:dc="http://purl.org/dc/elements/1.1/"
   xmlns:cc="http://creativecommons.org/ns#"
   xmlns:rdf="http://www.w3.org/1999/02/22-rdf-syntax-ns#"
   xmlns:svg="http://www.w3.org/2000/svg"
   xmlns="http://www.w3.org/2000/svg"
   xmlns:sodipodi="http://sodipodi.sourceforge.net/DTD/sodipodi-0.dtd"
   xmlns:inkscape="http://www.inkscape.org/namespaces/inkscape"
   id="svg2"
   version="1.1"
   inkscape:version="0.91 r13725"
   xml:space="preserve"
   width="234.75006"
   height="177.77875"
   viewBox="0 0 234.75006 177.77875"
   sodipodi:docname="dossier.svg"><metadata
     id="metadata8"><rdf:RDF><cc:Work
         rdf:about=""><dc:format>image/svg+xml</dc:format><dc:type
           rdf:resource="http://purl.org/dc/dcmitype/StillImage" /><dc:title></dc:title></cc:Work></rdf:RDF></metadata><defs
     id="defs6"><clipPath
       clipPathUnits="userSpaceOnUse"
       id="clipPath16"><path
         d="M 0,0 800,0 800,800 0,800 0,0 Z"
         id="path18"
         inkscape:connector-curvature="0" /></clipPath><radialGradient
       fx="0"
       fy="0"
       cx="0"
       cy="0"
       r="1"
       gradientUnits="userSpaceOnUse"
       gradientTransform="matrix(400,0,0,-400,874.60048,346.06813)"
       spreadMethod="pad"
       id="radialGradient24"><stop
         style="stop-opacity:1;stop-color:#ffffff"
         offset="0"
         id="stop26" /><stop
         style="stop-opacity:1;stop-color:#ffffff"
         offset="0.45843781"
         id="stop28" /><stop
         style="stop-opacity:1;stop-color:#e3e4e4"
         offset="1"
         id="stop30" /></radialGradient><clipPath
       clipPathUnits="userSpaceOnUse"
       id="clipPath38"><path
         d="M 0,800 800,800 800,0 0,0 0,800 Z"
         id="path40"
         inkscape:connector-curvature="0" /></clipPath><clipPath
       clipPathUnits="userSpaceOnUse"
       id="clipPath174"><path
         d="M 0,800 800,800 800,0 0,0 0,800 Z"
         id="path176"
         inkscape:connector-curvature="0" /></clipPath></defs><sodipodi:namedview
     pagecolor="#ffffff"
     bordercolor="#666666"
     borderopacity="1"
     objecttolerance="10"
     gridtolerance="10"
     guidetolerance="10"
     inkscape:pageopacity="0"
     inkscape:pageshadow="2"
     inkscape:window-width="1855"
     inkscape:window-height="1176"
     id="namedview4"
     showgrid="false"
     fit-margin-top="0"
     fit-margin-left="0"
     fit-margin-right="0"
     fit-margin-bottom="0"
     inkscape:zoom="1.7635243"
     inkscape:cx="167.63175"
     inkscape:cy="-28.81277"
     inkscape:window-x="65"
     inkscape:window-y="24"
     inkscape:window-maximized="1"
     inkscape:current-layer="g10" /><g
     id="g10"
     inkscape:groupmode="layer"
     inkscape:label="7"
     transform="matrix(1.25,0,0,-1.25,-366.7467,590.90613)"><path
       inkscape:connector-curvature="0"
       id="path236"
       style="fill:#00698e;fill-opacity:1;fill-rule:nonzero;stroke:none"
       d="m 455.86166,448.6849 c -0.059,1.354 -1.175,2.423 -2.53,2.423 l -77.368,0 -22.579,20.94 c -0.467,0.434 -1.083,0.677 -1.721,0.677 l -35.473,0 c -0.701,0 -1.37,-0.29 -1.849,-0.801 l -20.259,-21.611 c -0.466,-0.498 -0.712,-1.162 -0.683,-1.844 l 5.067,-115.544 c 0.06,-1.354 1.175,-2.423 2.531,-2.423 l 157.399,0 c 0.693,0 1.353,0.284 1.832,0.782 0.478,0.5 0.73,1.173 0.7,1.863 l -5.067,115.538 z" /><path
       inkscape:connector-curvature="0"
       id="path240"
       style="fill:#e6e6e6;fill-opacity:1;fill-rule:nonzero;stroke:none"
       d="m 448.92026,430.8636 -147.522,-4.896 c -1.398,-0.046 -2.495,-1.217 -2.448,-2.616 l 2.879,-86.759 c 0.046,-1.398 1.217,-2.494 2.616,-2.448 l 147.523,4.896 c 1.397,0.046 2.494,1.217 2.447,2.616 l -2.879,86.759 c -0.047,1.398 -1.218,2.494 -2.616,2.448" /><path
       inkscape:connector-curvature="0"
       id="path244"
       style="fill:#f2f2f2;fill-opacity:1;fill-rule:nonzero;stroke:none"
       d="m 455.90266,440.1508 -147.587,2.239 c -1.4,0.021 -2.55,-1.094 -2.572,-2.494 l -1.317,-86.796 c -0.022,-1.401 1.096,-2.551 2.495,-2.573 l 147.586,-2.238 c 1.399,-0.021 2.55,1.095 2.572,2.493 l 1.316,86.797 c 0.022,1.4 -1.095,2.551 -2.493,2.572" /><path
       inkscape:connector-curvature="0"
       id="path248"
       style="fill:#ffffff;fill-opacity:1;fill-rule:nonzero;stroke:none"
       d="m 463.56866,435.1302 -146.538,17.706 c -1.39,0.168 -2.651,-0.822 -2.819,-2.211 l -10.413,-86.18 c -0.168,-1.389 0.822,-2.65 2.211,-2.819 l 146.538,-17.705 c 1.388,-0.168 2.651,0.821 2.82,2.211 l 10.412,86.179 c 0.168,1.39 -0.822,2.652 -2.211,2.819" /><path
       inkscape:connector-curvature="0"
       id="path252"
       style="fill:#009fb8;fill-opacity:1;fill-rule:nonzero;stroke:none"
       d="m 480.59206,459.3148 c -0.479,0.566 -1.185,0.892 -1.929,0.892 l -78.363,0 c -0.638,0 -1.254,-0.242 -1.722,-0.676 l -22.576,-20.942 -54.739,0 c -1.21,0 -2.251,-0.857 -2.485,-2.044 l -20.266,-103.02 c -0.147,-0.743 0.048,-1.513 0.529,-2.098 0.481,-0.585 1.199,-0.924 1.956,-0.924 l 157.4,0 c 1.243,0 2.301,0.9 2.502,2.126 l 20.266,124.637 c 0.118,0.734 -0.09,1.483 -0.573,2.049" /><path
       inkscape:connector-curvature="0"
       id="path256"
       style="fill:#009fb8;fill-opacity:1;fill-rule:nonzero;stroke:none"
       d="m 299.04186,331.4266 c 0.481,-0.584 1.198,-0.924 1.955,-0.924 l 157.4,0 c 1.243,0 2.302,0.901 2.502,2.127 l 5.886,36.194 -168.273,-35.299 c -0.146,-0.743 0.048,-1.513 0.53,-2.098" /></g></svg>